<svg width="72" height="72" viewBox="0 0 72 72" fill="none" xmlns="http://www.w3.org/2000/svg">
<g clip-path="url(#clip0_3016_26339)">
<mask id="mask0_3016_26339" style="mask-type:luminance" maskUnits="userSpaceOnUse" x="0" y="0" width="72" height="72">
<path d="M72 0H0V72H72V0Z" fill="white"/>
</mask>
<g mask="url(#mask0_3016_26339)">
<mask id="mask1_3016_26339" style="mask-type:luminance" maskUnits="userSpaceOnUse" x="-1" y="-1" width="74" height="74">
<path d="M-0.25 -0.25H72.25V72.25H-0.25V-0.25Z" fill="white"/>
</mask>
<g mask="url(#mask1_3016_26339)">
<path d="M11.1319 18.8756L6.82339 23.1696C5.73205 24.2572 5.73205 26.0207 6.82339 27.1083L22.146 42.3789C23.2374 43.4666 25.0068 43.4666 26.0981 42.3789L30.4067 38.0851C31.4981 36.9974 31.4981 35.234 30.4067 34.1464L15.084 18.8756C14.5383 18.3317 13.8231 18.0598 13.108 18.0598C12.3927 18.0598 11.6776 18.3317 11.1319 18.8756Z" fill="url(#paint0_linear_3016_26339)"/>
<path d="M35.9137 16.1315L15.8616 36.1158L22.1461 42.379C23.2374 43.4667 25.0069 43.4667 26.0981 42.379L46.1505 22.3947L39.8657 16.1315C39.3202 15.5877 38.6049 15.3158 37.8899 15.3157C37.1746 15.3157 36.4595 15.5876 35.9137 16.1315Z" fill="url(#paint1_linear_3016_26339)"/>
<path d="M35.9138 16.1315L29.6292 22.3947L43.7208 36.4168H35.3176C33.7767 36.4168 32.5276 37.6658 32.5276 39.2066V45.2697C32.5276 46.8105 33.7767 48.0596 35.3176 48.0596H54.788H60.8905C61.4442 48.0596 61.9602 47.8982 62.3942 47.6201C63.1678 47.1241 63.6803 46.2567 63.6803 45.2697V19.8022C63.6803 18.2615 62.4312 17.0124 60.8905 17.0124H54.788C53.247 17.0124 51.9981 18.2615 51.9981 19.8022V28.201L39.8658 16.1315C39.3201 15.5876 38.605 15.3157 37.8898 15.3157C37.1746 15.3157 36.4594 15.5876 35.9138 16.1315Z" fill="url(#paint2_linear_3016_26339)"/>
</g>
</g>
</g>
<defs>
<linearGradient id="paint0_linear_3016_26339" x1="9.27074" y1="20.9414" x2="28.2948" y2="40.2005" gradientUnits="userSpaceOnUse">
<stop stop-color="#0B6413"/>
<stop offset="0.5" stop-color="#0E7012"/>
<stop offset="1" stop-color="#107C10"/>
</linearGradient>
<linearGradient id="paint1_linear_3016_26339" x1="19.8242" y1="40.1778" x2="41.7917" y2="18.5018" gradientUnits="userSpaceOnUse">
<stop stop-color="#33990F"/>
<stop offset="0.5" stop-color="#218A10"/>
<stop offset="1" stop-color="#107C10"/>
</linearGradient>
<linearGradient id="paint2_linear_3016_26339" x1="33.7842" y1="18.6141" x2="66.4628" y2="50.735" gradientUnits="userSpaceOnUse">
<stop stop-color="#56B60E"/>
<stop offset="0.5" stop-color="#67C50D"/>
<stop offset="1" stop-color="#78D30C"/>
</linearGradient>
<clipPath id="clip0_3016_26339">
<rect width="72" height="72" fill="white"/>
</clipPath>
</defs>
</svg>
