<svg width="72" height="72" viewBox="0 0 72 72" fill="none" xmlns="http://www.w3.org/2000/svg">
<g clip-path="url(#clip0_3015_25610)">
<mask id="mask0_3015_25610" style="mask-type:luminance" maskUnits="userSpaceOnUse" x="0" y="0" width="72" height="72">
<path d="M72 0H0V72H72V0Z" fill="white"/>
</mask>
<g mask="url(#mask0_3015_25610)">
<mask id="mask1_3015_25610" style="mask-type:luminance" maskUnits="userSpaceOnUse" x="-1" y="-1" width="74" height="74">
<path d="M-0.25 -0.25H72.25V72.25H-0.25V-0.25Z" fill="white"/>
</mask>
<g mask="url(#mask1_3015_25610)">
<path d="M22.201 29.9569L17.9288 34.2145C16.8467 35.2929 16.8467 37.0415 17.9288 38.12L22.2629 42.325C23.345 43.4036 25.0995 43.4036 26.1815 42.325L30.4538 38.0675C31.536 36.9889 31.536 35.2404 30.4538 34.162L26.1196 29.9569C25.5786 29.4176 24.8695 29.1479 24.1603 29.1479C23.4511 29.1479 22.742 29.4176 22.201 29.9569Z" fill="url(#paint0_linear_3015_25610)"/>
<path d="M35.9143 16.2992L16.0315 36.1148L22.2629 42.3251C23.3451 43.4036 25.0996 43.4036 26.1816 42.3251L46.0647 22.5095L39.833 16.2992C39.292 15.76 38.5828 15.4904 37.8738 15.4902C37.1646 15.4902 36.4555 15.7598 35.9143 16.2992Z" fill="url(#paint1_linear_3015_25610)"/>
<path d="M35.9144 16.2992L29.6829 22.5095L47.0986 39.866H38.7663C37.2385 39.866 35.9999 41.1045 35.9999 42.6323V48.6441C35.9999 50.1719 37.2385 51.4105 38.7663 51.4105H58.0723H64.1234C64.6724 51.4105 65.184 51.2505 65.6144 50.9747C66.3814 50.4829 66.8896 49.6229 66.8896 48.6441V23.3917C66.8896 21.864 65.6511 20.6255 64.1234 20.6255H58.0723C56.5444 20.6255 55.306 21.864 55.306 23.3917V31.7196L39.8331 16.2992C39.292 15.7598 38.5829 15.4902 37.8738 15.4902C37.1646 15.4902 36.4555 15.7598 35.9144 16.2992Z" fill="url(#paint2_linear_3015_25610)"/>
</g>
</g>
</g>
<defs>
<linearGradient id="paint0_linear_3015_25610" x1="9.49629" y1="21.0686" x2="28.3598" y2="40.1651" gradientUnits="userSpaceOnUse">
<stop stop-color="#0B6413"/>
<stop offset="0.5" stop-color="#0E7012"/>
<stop offset="1" stop-color="#107C10"/>
</linearGradient>
<linearGradient id="paint1_linear_3015_25610" x1="19.9607" y1="40.1424" x2="41.7427" y2="18.6495" gradientUnits="userSpaceOnUse">
<stop stop-color="#33990F"/>
<stop offset="0.5" stop-color="#218A10"/>
<stop offset="1" stop-color="#107C10"/>
</linearGradient>
<linearGradient id="paint2_linear_3015_25610" x1="33.8028" y1="18.7608" x2="66.2056" y2="50.6106" gradientUnits="userSpaceOnUse">
<stop stop-color="#56B60E"/>
<stop offset="0.5" stop-color="#67C50D"/>
<stop offset="1" stop-color="#78D30C"/>
</linearGradient>
<clipPath id="clip0_3015_25610">
<rect width="72" height="72" fill="white"/>
</clipPath>
</defs>
</svg>
