<svg width="72" height="72" viewBox="0 0 72 72" fill="none" xmlns="http://www.w3.org/2000/svg">
<g clip-path="url(#clip0_3016_26015)">
<mask id="mask0_3016_26015" style="mask-type:luminance" maskUnits="userSpaceOnUse" x="0" y="0" width="72" height="72">
<path d="M72 0H0V72H72V0Z" fill="white"/>
</mask>
<g mask="url(#mask0_3016_26015)">
<mask id="mask1_3016_26015" style="mask-type:luminance" maskUnits="userSpaceOnUse" x="-1" y="-1" width="74" height="74">
<path d="M-0.25 -0.25H72.25V72.25H-0.25V-0.25Z" fill="white"/>
</mask>
<g mask="url(#mask1_3016_26015)">
<path d="M12.6452 19.9178L8.59878 23.9505C7.57384 24.9719 7.57384 26.6281 8.59878 27.6495L22.9891 41.9909C24.014 43.0124 25.6758 43.0124 26.7006 41.9909L30.7471 37.9585C31.7721 36.9369 31.7721 35.2808 30.7471 34.2594L16.3567 19.9178C15.8443 19.407 15.1726 19.1516 14.501 19.1516C13.8293 19.1516 13.1576 19.407 12.6452 19.9178Z" fill="url(#paint0_linear_3016_26015)"/>
<path d="M27.1717 26.0482L17.0869 36.1089L22.989 41.991C24.014 43.0126 25.6758 43.0126 26.7006 41.991L36.7856 31.9303L30.8832 26.0482C30.3709 25.5375 29.6991 25.2821 29.0276 25.282C28.3559 25.282 27.6843 25.5373 27.1717 26.0482Z" fill="url(#paint1_linear_3016_26015)"/>
</g>
</g>
</g>
<defs>
<linearGradient id="paint0_linear_3016_26015" x1="10.8972" y1="21.8579" x2="28.7637" y2="39.9451" gradientUnits="userSpaceOnUse">
<stop stop-color="#0B6413"/>
<stop offset="0.5" stop-color="#0E7012"/>
<stop offset="1" stop-color="#107C10"/>
</linearGradient>
<linearGradient id="paint1_linear_3016_26015" x1="20.8084" y1="39.9237" x2="41.4393" y2="19.5667" gradientUnits="userSpaceOnUse">
<stop stop-color="#33990F"/>
<stop offset="0.5" stop-color="#218A10"/>
<stop offset="1" stop-color="#107C10"/>
</linearGradient>
<clipPath id="clip0_3016_26015">
<rect width="72" height="72" fill="white"/>
</clipPath>
</defs>
</svg>
