<svg width="72" height="72" viewBox="0 0 72 72" fill="none" xmlns="http://www.w3.org/2000/svg">
<g clip-path="url(#clip0_3633_1918)">
<mask id="mask0_3633_1918" style="mask-type:luminance" maskUnits="userSpaceOnUse" x="0" y="0" width="72" height="72">
<path d="M72 0H0V72H72V0Z" fill="white"/>
</mask>
<g mask="url(#mask0_3633_1918)">
<mask id="mask1_3633_1918" style="mask-type:luminance" maskUnits="userSpaceOnUse" x="-1" y="-1" width="74" height="74">
<path d="M-0.25 -0.25H72.25V72.25H-0.25V-0.25Z" fill="white"/>
</mask>
<g mask="url(#mask1_3633_1918)">
<path d="M36.4063 20.9941L1.84622 31.862C0.722494 32.2153 -0.0484087 33.1648 -0.22799 34.2527L-0.228536 35.2264C-0.205431 35.3671 -0.172177 35.5079 -0.128201 35.6477L10.7395 70.2081C11.0716 71.264 11.9302 72.0084 12.9352 72.2433L14.2992 72.2441C14.3747 72.2266 14.4501 72.2061 14.5253 72.1823L49.0856 61.3145C50.6764 60.8143 51.5601 59.1194 51.0599 57.5287L40.1921 22.9685C39.7868 21.6798 38.5975 20.855 37.3147 20.8543C37.0141 20.8541 36.7082 20.8992 36.4063 20.9941Z" fill="url(#paint0_linear_3633_1918)"/>
<path d="M8.10068 29.8951L1.84574 31.8621C1.49629 31.9718 1.18101 32.1395 0.906997 32.3509C0.298902 33.1748 -0.104515 34.1592 -0.228582 35.2286C-0.205619 35.3683 -0.172368 35.5084 -0.128681 35.6477L10.7393 70.2081C11.0403 71.1655 11.7745 71.8671 12.6582 72.1646L14.578 72.1657L49.0853 61.3145C50.676 60.8143 51.56 59.1194 51.0597 57.5287L42.3762 29.9144L8.10068 29.8951Z" fill="url(#paint1_linear_3633_1918)"/>
<path d="M8.10082 29.8951L1.84574 31.8621C1.49629 31.9718 1.18101 32.1395 0.906997 32.3509C0.298902 33.1748 -0.104515 34.1592 -0.228582 35.2286C-0.205619 35.3683 -0.172368 35.5084 -0.128681 35.6477L6.47785 56.6061L48.3445 52.0182L42.3762 29.9144L8.10082 29.8951Z" fill="url(#paint2_linear_3633_1918)"/>
<path d="M30.5028 2.01291L20.9719 37.6522C20.5334 39.2926 21.5076 40.9777 23.1479 41.4165L58.7869 50.9471C60.4271 51.3858 62.1124 50.4117 62.551 48.7713L72.0819 13.1323C72.5206 11.492 71.5464 9.80667 69.906 9.36801L34.267 -0.162743C34.0004 -0.234069 33.7328 -0.267997 33.4695 -0.267868C32.1121 -0.26706 30.8701 0.639423 30.5028 2.01291Z" fill="url(#paint3_linear_3633_1918)"/>
<path d="M11.7852 14.803C8.44792 14.8035 5.74288 17.5094 5.74343 20.8467L5.74839 51.0609C5.74894 54.3983 8.45488 57.1032 11.7921 57.1026L60.1348 57.0947C63.472 57.0941 66.1771 54.3883 66.1765 51.0509L66.1715 20.8367C66.171 17.4995 63.4651 14.7945 60.1278 14.795L11.7852 14.803Z" fill="url(#paint4_linear_3633_1918)"/>
<path d="M11.7852 14.803C8.44792 14.8035 5.74288 17.5094 5.74343 20.8467L5.74839 51.0609C5.74894 54.3983 8.45488 57.1032 11.7921 57.1026L60.1348 57.0947C63.472 57.0941 66.1771 54.3883 66.1765 51.0509L66.1715 20.8367C66.171 17.4995 63.4651 14.7945 60.1278 14.795L11.7852 14.803Z" fill="url(#paint5_linear_3633_1918)"/>
<path d="M11.7852 14.803C8.44792 14.8035 5.74288 17.5094 5.74343 20.8467L5.74839 51.0609C5.74894 54.3983 8.45488 57.1032 11.7921 57.1026L60.1348 57.0947C63.472 57.0941 66.1771 54.3883 66.1765 51.0509L66.1715 20.8367C66.171 17.4995 63.4651 14.7945 60.1278 14.795L11.7852 14.803Z" fill="url(#paint6_radial_3633_1918)"/>
<path d="M34.1808 47.9278C32.0463 48.5382 28.9456 43.652 27.2551 37.0142C25.5647 30.3764 25.9246 24.5006 28.0592 23.8902C30.1938 23.2798 33.2946 28.1659 34.9849 34.8039C36.6753 41.4415 36.3154 47.3174 34.1808 47.9278Z" fill="#FFA0BA"/>
<path d="M27.3949 24.301L11.483 38.3368C9.39953 40.1942 10.3142 43.786 12.9967 44.2804L13.4071 44.3561C16.7461 44.9716 19.5964 47.2448 20.9831 50.3984C21.3261 51.0253 22.0834 51.2389 22.6748 50.8754C23.2661 50.512 23.4674 49.7095 23.1246 49.0826C22.5461 47.6889 23.6813 46.2328 25.146 46.4895L33.5822 47.9683L33.5803 47.9611C31.4973 47.6412 28.7924 43.0525 27.2547 37.0139C25.7581 31.1377 25.8687 25.8583 27.3949 24.301Z" fill="white"/>
<path d="M41.9475 46.1989C41.9475 45.2457 42.7202 44.4728 43.6734 44.4727L55.3252 44.4721C56.2786 44.4719 57.0516 45.2446 57.0516 46.198C57.0516 47.1514 56.2787 47.9242 55.3254 47.9242L43.6739 47.9251C42.7205 47.9251 41.9475 47.1523 41.9475 46.1989Z" fill="white"/>
<path d="M41.9475 35.9855C41.9475 35.0321 42.7204 34.2593 43.6737 34.2593H58.3463C59.2997 34.2593 60.0725 35.0321 60.0725 35.9855C60.0725 36.9389 59.2997 37.7117 58.3463 37.7117H43.6737C42.7204 37.7117 41.9475 36.9389 41.9475 35.9855Z" fill="white"/>
<path d="M45.446 25.4819C45.446 24.5286 46.2189 23.7557 47.1723 23.7557L58.3461 23.7568C59.2995 23.7568 60.0723 24.5296 60.0723 25.483C60.0723 26.4364 59.2995 27.2092 58.3461 27.2092L47.1723 27.2082C46.2189 27.2082 45.446 26.4353 45.446 25.4819Z" fill="white"/>
</g>
</g>
</g>
<defs>
<linearGradient id="paint0_linear_3633_1918" x1="29.9719" y1="69.5569" x2="20.3949" y2="20.1682" gradientUnits="userSpaceOnUse">
<stop stop-color="#8C48FF"/>
<stop offset="0.5" stop-color="#4E6FEE"/>
<stop offset="1" stop-color="#1097DD"/>
</linearGradient>
<linearGradient id="paint1_linear_3633_1918" x1="22.4536" y1="48.7305" x2="22.9001" y2="63.3476" gradientUnits="userSpaceOnUse">
<stop stop-color="#47229F" stop-opacity="0"/>
<stop offset="0.25" stop-color="#28125D" stop-opacity="0.4"/>
<stop offset="0.5" stop-color="#09011B" stop-opacity="0.8"/>
<stop offset="0.75" stop-color="#28125D" stop-opacity="0.4"/>
<stop offset="1" stop-color="#47229F" stop-opacity="0"/>
</linearGradient>
<linearGradient id="paint2_linear_3633_1918" x1="1.5403" y1="36.6958" x2="12.7896" y2="36.2181" gradientUnits="userSpaceOnUse">
<stop stop-color="#47229F" stop-opacity="0"/>
<stop offset="0.25" stop-color="#28125D" stop-opacity="0.405"/>
<stop offset="0.5" stop-color="#09011B" stop-opacity="0.81"/>
<stop offset="0.75" stop-color="#28125D" stop-opacity="0.405"/>
<stop offset="1" stop-color="#47229F" stop-opacity="0"/>
</linearGradient>
<linearGradient id="paint3_linear_3633_1918" x1="48.4036" y1="34.903" x2="39.9782" y2="-8.15419" gradientUnits="userSpaceOnUse">
<stop stop-color="#00AEFF"/>
<stop offset="0.5" stop-color="#1181E7"/>
<stop offset="1" stop-color="#2253CE"/>
</linearGradient>
<linearGradient id="paint4_linear_3633_1918" x1="40.9958" y1="39.4916" x2="64.8564" y2="57.5317" gradientUnits="userSpaceOnUse">
<stop stop-color="#F2598A"/>
<stop offset="0.5" stop-color="#F95C63"/>
<stop offset="1" stop-color="#FF5F3D"/>
</linearGradient>
<linearGradient id="paint5_linear_3633_1918" x1="71.7548" y1="65.0409" x2="46.0871" y2="43.995" gradientUnits="userSpaceOnUse">
<stop stop-color="#FFB152"/>
<stop offset="0.5" stop-color="#FFB152" stop-opacity="0.5"/>
<stop offset="1" stop-color="#FFB152" stop-opacity="0"/>
</linearGradient>
<radialGradient id="paint6_radial_3633_1918" cx="0" cy="0" r="1" gradientUnits="userSpaceOnUse" gradientTransform="translate(1.12556 11.7848) scale(28.0346)">
<stop stop-color="#A44CE3"/>
<stop offset="0.5" stop-color="#A44CE3" stop-opacity="0.5"/>
<stop offset="1" stop-color="#A44CE3" stop-opacity="0"/>
</radialGradient>
<clipPath id="clip0_3633_1918">
<rect width="72" height="72" fill="white"/>
</clipPath>
</defs>
</svg>
