<svg width="72" height="72" viewBox="0 0 72 72" fill="none" xmlns="http://www.w3.org/2000/svg">
<g clip-path="url(#clip0_3633_3960)">
<mask id="mask0_3633_3960" style="mask-type:luminance" maskUnits="userSpaceOnUse" x="0" y="0" width="72" height="72">
<path d="M72 0H0V72H72V0Z" fill="white"/>
</mask>
<g mask="url(#mask0_3633_3960)">
<mask id="mask1_3633_3960" style="mask-type:luminance" maskUnits="userSpaceOnUse" x="-1" y="-1" width="74" height="74">
<path d="M-0.25 -0.25H72.25V72.25H-0.25V-0.25Z" fill="white"/>
</mask>
<g mask="url(#mask1_3633_3960)">
<path d="M36.7825 21.4084L2.87196 31.092C1.76935 31.4068 0.99469 32.3108 0.791865 33.3649L0.766205 34.3123C0.785058 34.4499 0.813784 34.5877 0.852967 34.7249L10.5363 68.6357C10.8322 69.6717 11.6486 70.4183 12.6205 70.6728L13.9477 70.7088C14.0216 70.6937 14.0955 70.6757 14.1693 70.6545L48.0801 60.9711C49.6409 60.5253 50.5446 58.8989 50.0989 57.3381L40.4154 23.4274C40.0543 22.163 38.9183 21.3297 37.67 21.2959C37.3776 21.2879 37.0787 21.3239 36.7825 21.4084Z" fill="url(#paint0_linear_3633_3960)"/>
<path d="M9.00906 29.3395L2.87169 31.092C2.52881 31.1899 2.21768 31.3448 1.94559 31.5435C1.3326 32.3296 0.914633 33.277 0.766307 34.3144C0.785047 34.451 0.813786 34.5882 0.852703 34.7249L10.5363 68.6357C10.8045 69.5751 11.5009 70.2767 12.3531 70.5891L14.2212 70.6397L48.0799 60.971C49.6408 60.5253 50.5447 58.8989 50.0989 57.3381L42.3618 30.2427L9.00906 29.3395Z" fill="url(#paint1_linear_3633_3960)"/>
<path d="M9.0092 29.3395L2.87169 31.092C2.52881 31.1899 2.21768 31.3448 1.94559 31.5435C1.3326 32.3296 0.914634 33.277 0.766307 34.3144C0.785047 34.451 0.813786 34.5882 0.852703 34.7249L6.74058 55.2897L47.599 51.9058L42.3618 30.2427L9.0092 29.3395Z" fill="url(#paint2_linear_3633_3960)"/>
<path d="M30.0182 3.61124L21.4902 38.762C21.0979 40.3799 22.0913 42.0094 23.709 42.402L58.8595 50.9298C60.4772 51.3223 62.1069 50.329 62.4994 48.7111L71.0274 13.5607C71.4199 11.9428 70.4265 10.3131 68.8086 9.92062L33.6581 1.39272C33.3952 1.3289 33.1322 1.30175 32.874 1.3079C31.5436 1.33969 30.3469 2.25658 30.0182 3.61124Z" fill="url(#paint3_linear_3633_3960)"/>
<path d="M11.4076 14.805C8.04103 14.8315 5.33325 17.5822 5.35975 20.9488L5.59968 51.4285C5.62618 54.7952 8.37693 57.5028 11.7435 57.4763L60.5109 57.0924C63.8774 57.0659 66.5852 54.3153 66.5587 50.9486L66.3188 20.4689C66.2923 17.1024 63.5416 14.3946 60.175 14.4211L11.4076 14.805Z" fill="url(#paint4_linear_3633_3960)"/>
<path d="M11.4076 14.805C8.04103 14.8315 5.33325 17.5822 5.35975 20.9488L5.59968 51.4285C5.62618 54.7952 8.37693 57.5028 11.7435 57.4763L60.5109 57.0924C63.8774 57.0659 66.5852 54.3153 66.5587 50.9486L66.3188 20.4689C66.2923 17.1024 63.5416 14.3946 60.175 14.4211L11.4076 14.805Z" fill="url(#paint5_linear_3633_3960)"/>
<path d="M11.4076 14.805C8.04103 14.8315 5.33325 17.5822 5.35975 20.9488L5.59968 51.4285C5.62618 54.7952 8.37693 57.5028 11.7435 57.4763L60.5109 57.0924C63.8774 57.0659 66.5852 54.3153 66.5587 50.9486L66.3188 20.4689C66.2923 17.1024 63.5416 14.3946 60.175 14.4211L11.4076 14.805Z" fill="url(#paint6_radial_3633_3960)"/>
<path d="M34.3429 46.8608C32.2087 47.6653 28.6228 42.9228 26.3337 36.2683C24.0447 29.6139 23.9192 23.5672 26.0535 22.7627C28.1879 21.9582 31.7737 26.7005 34.0626 33.3551C36.3517 40.0094 36.4772 46.0563 34.3429 46.8608Z" fill="#FFA0BA"/>
<path d="M25.4079 23.2392L10.2955 38.9489C8.31833 41.0259 9.55688 44.6268 12.3452 44.9074L12.7718 44.9504C16.2424 45.2999 19.3521 47.3878 21.0372 50.5003C21.4411 51.1134 22.2344 51.2683 22.8095 50.8464C23.3844 50.4247 23.523 49.586 23.1193 48.9729C22.4098 47.5945 23.4497 46.0081 24.971 46.1478L33.7335 46.9526L33.7309 46.9454C31.5712 46.793 28.4157 42.3218 26.3334 36.2681C24.3068 30.377 23.9762 24.9621 25.4079 23.2392Z" fill="white"/>
<path d="M27.4184 40.3823C27.541 39.8972 28.0336 39.6032 28.5187 39.7257L32.8699 40.8266C33.3551 40.9492 33.6491 41.4418 33.5265 41.927C33.4039 42.4122 32.9112 42.7061 32.426 42.5835L28.075 41.4828C27.5898 41.3602 27.2958 40.8675 27.4184 40.3823Z" fill="white"/>
<path d="M27.2976 35.9924C27.2976 35.492 27.7033 35.0863 28.2037 35.0863L33.8579 35.0913C34.3583 35.0913 34.764 35.497 34.764 35.9974C34.764 36.4979 34.3583 36.9035 33.8579 36.9035L28.2037 36.8985C27.7033 36.8985 27.2976 36.4929 27.2976 35.9924Z" fill="white"/>
<path d="M27.4427 31.645C27.3201 31.1599 27.614 30.6671 28.0992 30.5445L33.5921 29.1611C34.0773 29.0385 34.57 29.3324 34.6926 29.8176C34.8152 30.3028 34.5212 30.7955 34.0361 30.9181L28.5432 32.3015C28.058 32.4241 27.5653 32.1302 27.4427 31.645Z" fill="white"/>
</g>
</g>
</g>
<defs>
<linearGradient id="paint0_linear_3633_3960" x1="29.2679" y1="68.4983" x2="21.2232" y2="20.1916" gradientUnits="userSpaceOnUse">
<stop stop-color="#8C48FF"/>
<stop offset="0.5" stop-color="#4E6FEE"/>
<stop offset="1" stop-color="#1097DD"/>
</linearGradient>
<linearGradient id="paint1_linear_3633_3960" x1="22.4896" y1="48.0384" x2="22.6744" y2="64.1646" gradientUnits="userSpaceOnUse">
<stop stop-color="#47229F" stop-opacity="0"/>
<stop offset="0.25" stop-color="#28125D" stop-opacity="0.4"/>
<stop offset="0.5" stop-color="#09011B" stop-opacity="0.8"/>
<stop offset="0.75" stop-color="#28125D" stop-opacity="0.4"/>
<stop offset="1" stop-color="#47229F" stop-opacity="0"/>
</linearGradient>
<linearGradient id="paint2_linear_3633_3960" x1="2.44973" y1="35.7878" x2="13.4087" y2="35.6133" gradientUnits="userSpaceOnUse">
<stop stop-color="#47229F" stop-opacity="0"/>
<stop offset="0.25" stop-color="#28125D" stop-opacity="0.405"/>
<stop offset="0.5" stop-color="#09011B" stop-opacity="0.81"/>
<stop offset="0.75" stop-color="#28125D" stop-opacity="0.405"/>
<stop offset="1" stop-color="#47229F" stop-opacity="0"/>
</linearGradient>
<linearGradient id="paint3_linear_3633_3960" x1="48.3155" y1="35.4408" x2="39.0736" y2="-6.57081" gradientUnits="userSpaceOnUse">
<stop stop-color="#00AEFF"/>
<stop offset="0.5" stop-color="#1181E7"/>
<stop offset="1" stop-color="#2253CE"/>
</linearGradient>
<linearGradient id="paint4_linear_3633_3960" x1="41.0668" y1="39.4835" x2="65.2774" y2="57.4966" gradientUnits="userSpaceOnUse">
<stop stop-color="#F2598A"/>
<stop offset="0.5" stop-color="#F95C63"/>
<stop offset="1" stop-color="#FF5F3D"/>
</linearGradient>
<linearGradient id="paint5_linear_3633_3960" x1="72.2948" y1="65.0181" x2="46.238" y2="43.9869" gradientUnits="userSpaceOnUse">
<stop stop-color="#FFB152"/>
<stop offset="0.5" stop-color="#FFB152" stop-opacity="0.5"/>
<stop offset="1" stop-color="#FFB152" stop-opacity="0"/>
</linearGradient>
<radialGradient id="paint6_radial_3633_3960" cx="0" cy="0" r="1" gradientUnits="userSpaceOnUse" gradientTransform="translate(0.630848 11.8432) rotate(-0.451008) scale(28.2818 28.2818)">
<stop stop-color="#A44CE3"/>
<stop offset="0.5" stop-color="#A44CE3" stop-opacity="0.5"/>
<stop offset="1" stop-color="#A44CE3" stop-opacity="0"/>
</radialGradient>
<clipPath id="clip0_3633_3960">
<rect width="72" height="72" fill="white"/>
</clipPath>
</defs>
</svg>
