<svg width="72" height="72" viewBox="0 0 72 72" fill="none" xmlns="http://www.w3.org/2000/svg">
<g clip-path="url(#clip0_3016_25637)">
<mask id="mask0_3016_25637" style="mask-type:luminance" maskUnits="userSpaceOnUse" x="0" y="0" width="72" height="72">
<path d="M72 0H0V72H72V0Z" fill="white"/>
</mask>
<g mask="url(#mask0_3016_25637)">
<mask id="mask1_3016_25637" style="mask-type:luminance" maskUnits="userSpaceOnUse" x="-1" y="-1" width="74" height="74">
<path d="M-0.25 -0.25H72.25V72.25H-0.25V-0.25Z" fill="white"/>
</mask>
<g mask="url(#mask1_3016_25637)">
<path d="M35.9169 16.9023L17.3918 35.361L23.4325 41.3812C24.4816 42.4267 26.1824 42.4267 27.2313 41.3812L45.7566 22.9226L39.7156 16.9023C39.1912 16.3796 38.5037 16.1183 37.8165 16.1182C37.1289 16.1182 36.4415 16.3795 35.9169 16.9023Z" fill="url(#paint0_linear_3016_25637)"/>
<path d="M35.917 16.9023L29.8762 22.9226L46.7589 39.7478H38.6816C37.2006 39.7478 35.9999 40.9484 35.9999 42.4294V48.2573C35.9999 49.7383 37.2006 50.9389 38.6816 50.9389H57.3967H63.2626C63.7947 50.9389 64.2907 50.7838 64.7079 50.5165C65.4515 50.0398 65.9441 49.206 65.9441 48.2573V23.7778C65.9441 22.2968 64.7435 21.0962 63.2626 21.0962H57.3967C55.9156 21.0962 54.7151 22.2968 54.7151 23.7778V31.8507L39.7158 16.9023C39.1913 16.3795 38.5039 16.1182 37.8165 16.1182C37.1289 16.1182 36.4415 16.3795 35.917 16.9023Z" fill="url(#paint1_linear_3016_25637)"/>
</g>
</g>
</g>
<defs>
<linearGradient id="paint0_linear_3016_25637" x1="20.4516" y1="40.0158" x2="41.5669" y2="19.1807" gradientUnits="userSpaceOnUse">
<stop stop-color="#33990F"/>
<stop offset="0.5" stop-color="#218A10"/>
<stop offset="1" stop-color="#107C10"/>
</linearGradient>
<linearGradient id="paint1_linear_3016_25637" x1="33.8701" y1="19.2887" x2="65.281" y2="50.1635" gradientUnits="userSpaceOnUse">
<stop stop-color="#56B60E"/>
<stop offset="0.5" stop-color="#67C50D"/>
<stop offset="1" stop-color="#78D30C"/>
</linearGradient>
<clipPath id="clip0_3016_25637">
<rect width="72" height="72" fill="white"/>
</clipPath>
</defs>
</svg>
