<svg width="72" height="72" viewBox="0 0 72 72" fill="none" xmlns="http://www.w3.org/2000/svg">
<g clip-path="url(#clip0_3016_25772)">
<mask id="mask0_3016_25772" style="mask-type:luminance" maskUnits="userSpaceOnUse" x="0" y="0" width="72" height="72">
<path d="M72 0H0V72H72V0Z" fill="white"/>
</mask>
<g mask="url(#mask0_3016_25772)">
<mask id="mask1_3016_25772" style="mask-type:luminance" maskUnits="userSpaceOnUse" x="-1" y="-1" width="74" height="74">
<path d="M-0.25 -0.25H72.25V72.25H-0.25V-0.25Z" fill="white"/>
</mask>
<g mask="url(#mask1_3016_25772)">
<path d="M37.0161 18.5981L31.1656 24.4285L46.4199 39.6297H38.5972C37.1629 39.6297 36.0001 40.7923 36.0001 42.2267V47.8709C36.0001 49.3052 37.1629 50.468 38.5972 50.468H56.7224H62.4034C62.9188 50.468 63.3991 50.3178 63.8032 50.0589C64.5233 49.5972 65.0004 48.7897 65.0004 47.8709V24.163C65.0004 22.7287 63.8376 21.5659 62.4034 21.5659H56.7224C55.288 21.5659 54.1253 22.7287 54.1253 24.163V31.9815L40.6951 18.5981C40.1871 18.0917 39.5213 17.8386 38.8556 17.8386C38.1898 17.8386 37.524 18.0917 37.0161 18.5981Z" fill="url(#paint0_linear_3016_25772)"/>
<path d="M12.8501 20.0588L8.83923 24.0561C7.82329 25.0685 7.82329 26.7102 8.83923 27.7226L14.9637 33.736C15.9797 34.7486 17.6269 34.7486 18.6427 33.736L22.6537 29.7389C23.6696 28.7263 23.6696 27.0848 22.6537 26.0723L16.5291 20.0588C16.0211 19.5524 15.3554 19.2993 14.6896 19.2993C14.0238 19.2993 13.3581 19.5524 12.8501 20.0588Z" fill="url(#paint1_linear_3016_25772)"/>
</g>
</g>
</g>
<defs>
<linearGradient id="paint0_linear_3016_25772" x1="33.9373" y1="19.8153" x2="64.3582" y2="49.717" gradientUnits="userSpaceOnUse">
<stop stop-color="#56B60E"/>
<stop offset="0.5" stop-color="#67C50D"/>
<stop offset="1" stop-color="#78D30C"/>
</linearGradient>
<linearGradient id="paint1_linear_3016_25772" x1="11.1175" y1="21.9818" x2="28.8272" y2="39.9103" gradientUnits="userSpaceOnUse">
<stop stop-color="#0B6413"/>
<stop offset="0.5" stop-color="#0E7012"/>
<stop offset="1" stop-color="#107C10"/>
</linearGradient>
<clipPath id="clip0_3016_25772">
<rect width="72" height="72" fill="white"/>
</clipPath>
</defs>
</svg>
