<svg width="72" height="72" viewBox="0 0 72 72" fill="none" xmlns="http://www.w3.org/2000/svg">
<g clip-path="url(#clip0_3016_25745)">
<mask id="mask0_3016_25745" style="mask-type:luminance" maskUnits="userSpaceOnUse" x="0" y="0" width="72" height="72">
<path d="M72 0H0V72H72V0Z" fill="white"/>
</mask>
<g mask="url(#mask0_3016_25745)">
<mask id="mask1_3016_25745" style="mask-type:luminance" maskUnits="userSpaceOnUse" x="-1" y="-1" width="74" height="74">
<path d="M-0.25 -0.25H72.25V72.25H-0.25V-0.25Z" fill="white"/>
</mask>
<g mask="url(#mask1_3016_25745)">
<path d="M35.9197 17.4912L32.4873 20.8349L38.3418 26.6695C39.3584 27.6828 41.0068 27.6828 42.0234 26.6695L45.456 23.3258L39.6013 17.4912C39.0931 16.9846 38.4268 16.7313 37.7607 16.7312C37.0943 16.7312 36.4281 16.9845 35.9197 17.4912Z" fill="url(#paint0_linear_3016_25745)"/>
<path d="M35.9198 17.4912L30.0652 23.3258L46.4274 39.6324H38.5991C37.1637 39.6324 36.0001 40.7959 36.0001 42.2313V47.8795C36.0001 49.3148 37.1637 50.4785 38.5991 50.4785H56.7372H62.4222C62.938 50.4785 63.4187 50.3281 63.823 50.069C64.5437 49.607 65.0211 48.799 65.0211 47.8795V24.1547C65.0211 22.7194 63.8575 21.5558 62.4222 21.5558H56.7372C55.3017 21.5558 54.1382 22.7194 54.1382 24.1547V31.9787L39.6014 17.4912C39.093 16.9845 38.4268 16.7312 37.7606 16.7312C37.0943 16.7312 36.4281 16.9845 35.9198 17.4912Z" fill="url(#paint1_linear_3016_25745)"/>
<path d="M12.8336 20.0476L8.81987 24.0477C7.80321 25.0609 7.80321 26.7037 8.81987 27.7169L12.8239 31.5934C13.8405 32.6067 15.4889 32.6067 16.5055 31.5934L20.5193 27.5934C21.536 26.5801 21.536 24.9374 20.5193 23.9242L16.5152 20.0476C16.0069 19.5409 15.3407 19.2876 14.6745 19.2876C14.0081 19.2876 13.3419 19.5409 12.8336 20.0476Z" fill="url(#paint2_linear_3016_25745)"/>
</g>
</g>
</g>
<defs>
<linearGradient id="paint0_linear_3016_25745" x1="20.9311" y1="39.8921" x2="41.3955" y2="19.6994" gradientUnits="userSpaceOnUse">
<stop stop-color="#33990F"/>
<stop offset="0.5" stop-color="#218A10"/>
<stop offset="1" stop-color="#107C10"/>
</linearGradient>
<linearGradient id="paint1_linear_3016_25745" x1="33.9359" y1="19.8039" x2="64.3785" y2="49.7269" gradientUnits="userSpaceOnUse">
<stop stop-color="#56B60E"/>
<stop offset="0.5" stop-color="#67C50D"/>
<stop offset="1" stop-color="#78D30C"/>
</linearGradient>
<linearGradient id="paint2_linear_3016_25745" x1="11.0998" y1="21.972" x2="28.8221" y2="39.9133" gradientUnits="userSpaceOnUse">
<stop stop-color="#0B6413"/>
<stop offset="0.5" stop-color="#0E7012"/>
<stop offset="1" stop-color="#107C10"/>
</linearGradient>
<clipPath id="clip0_3016_25745">
<rect width="72" height="72" fill="white"/>
</clipPath>
</defs>
</svg>
