<svg width="72" height="72" viewBox="0 0 72 72" fill="none" xmlns="http://www.w3.org/2000/svg">
<g clip-path="url(#clip0_3016_25988)">
<mask id="mask0_3016_25988" style="mask-type:luminance" maskUnits="userSpaceOnUse" x="0" y="0" width="72" height="72">
<path d="M72 0H0V72H72V0Z" fill="white"/>
</mask>
<g mask="url(#mask0_3016_25988)">
<mask id="mask1_3016_25988" style="mask-type:luminance" maskUnits="userSpaceOnUse" x="-1" y="-1" width="74" height="74">
<path d="M-0.25 -0.25H72.25V72.25H-0.25V-0.25Z" fill="white"/>
</mask>
<g mask="url(#mask1_3016_25988)">
<path d="M12.7018 19.9567L8.66527 23.9796C7.64283 24.9985 7.64283 26.6507 8.66527 27.6696L23.0206 41.9762C24.043 42.9952 25.7008 42.9952 26.7231 41.9762L30.7598 37.9535C31.7822 36.9344 31.7822 35.2824 30.7598 34.2635L16.4043 19.9567C15.8931 19.4471 15.2231 19.1924 14.5531 19.1924C13.883 19.1924 13.213 19.4471 12.7018 19.9567Z" fill="url(#paint0_linear_3016_25988)"/>
<path d="M24.4375 28.8153L17.1328 36.1086L23.0206 41.9764C24.043 42.9954 25.7008 42.9954 26.7231 41.9764L34.028 34.6831L28.14 28.8153C27.6289 28.3059 26.9588 28.0511 26.2889 28.051C25.6188 28.051 24.9488 28.3058 24.4375 28.8153Z" fill="url(#paint1_linear_3016_25988)"/>
</g>
</g>
</g>
<defs>
<linearGradient id="paint0_linear_3016_25988" x1="10.9581" y1="21.8921" x2="28.7812" y2="39.9353" gradientUnits="userSpaceOnUse">
<stop stop-color="#0B6413"/>
<stop offset="0.5" stop-color="#0E7012"/>
<stop offset="1" stop-color="#107C10"/>
</linearGradient>
<linearGradient id="paint1_linear_3016_25988" x1="20.8453" y1="39.9141" x2="41.426" y2="19.6066" gradientUnits="userSpaceOnUse">
<stop stop-color="#33990F"/>
<stop offset="0.5" stop-color="#218A10"/>
<stop offset="1" stop-color="#107C10"/>
</linearGradient>
<clipPath id="clip0_3016_25988">
<rect width="72" height="72" fill="white"/>
</clipPath>
</defs>
</svg>
