<svg width="72" height="72" viewBox="0 0 72 72" fill="none" xmlns="http://www.w3.org/2000/svg">
<g clip-path="url(#clip0_3016_26501)">
<mask id="mask0_3016_26501" style="mask-type:luminance" maskUnits="userSpaceOnUse" x="0" y="0" width="72" height="72">
<path d="M72 0H0V72H72V0Z" fill="white"/>
</mask>
<g mask="url(#mask0_3016_26501)">
<mask id="mask1_3016_26501" style="mask-type:luminance" maskUnits="userSpaceOnUse" x="-1" y="-1" width="74" height="74">
<path d="M-0.25 -0.25H72.25V72.25H-0.25V-0.25Z" fill="white"/>
</mask>
<g mask="url(#mask1_3016_26501)">
<path d="M8.49757 17.0617L3.73261 21.8105C2.52565 23.0133 2.52565 24.9636 3.73261 26.1665L20.6784 43.0547C21.8854 44.2576 23.8423 44.2576 25.0491 43.0547L29.8142 38.3061C31.0212 37.1032 31.0212 35.153 29.8142 33.9502L12.8683 17.0617C12.2648 16.4601 11.4739 16.1594 10.683 16.1594C9.89195 16.1594 9.10105 16.4601 8.49757 17.0617Z" fill="url(#paint0_linear_3016_26501)"/>
<path d="M35.9046 14.0268L13.7283 36.1281L20.6785 43.0548C21.8855 44.2577 23.8424 44.2577 25.0492 43.0548L47.2258 20.9534L40.2753 14.0268C39.6719 13.4254 38.8809 13.1246 38.0901 13.1245C37.2991 13.1245 36.5082 13.4252 35.9046 14.0268Z" fill="url(#paint1_linear_3016_26501)"/>
<path d="M35.9047 14.0268L28.9543 20.9534L48.2691 40.2019H38.9756C37.2716 40.2019 35.8902 41.5831 35.8902 43.2872V49.9925C35.8902 51.6966 37.2716 53.078 38.9756 53.078H60.5087H67.2577C67.87 53.078 68.4407 52.8995 68.9207 52.5919C69.7762 52.0434 70.343 51.0841 70.343 49.9925V21.8272C70.343 20.1233 68.9616 18.7419 67.2577 18.7419H60.5087C58.8045 18.7419 57.4232 20.1233 57.4232 21.8272V31.1157L40.2754 14.0268C39.6719 13.4252 38.881 13.1245 38.0901 13.1245C37.2991 13.1245 36.5082 13.4252 35.9047 14.0268Z" fill="url(#paint2_linear_3016_26501)"/>
</g>
</g>
</g>
<defs>
<linearGradient id="paint0_linear_3016_26501" x1="6.43922" y1="19.3463" x2="27.4786" y2="40.6456" gradientUnits="userSpaceOnUse">
<stop stop-color="#0B6413"/>
<stop offset="0.5" stop-color="#0E7012"/>
<stop offset="1" stop-color="#107C10"/>
</linearGradient>
<linearGradient id="paint1_linear_3016_26501" x1="18.1107" y1="40.6203" x2="42.4053" y2="16.6482" gradientUnits="userSpaceOnUse">
<stop stop-color="#33990F"/>
<stop offset="0.5" stop-color="#218A10"/>
<stop offset="1" stop-color="#107C10"/>
</linearGradient>
<linearGradient id="paint2_linear_3016_26501" x1="33.5495" y1="16.7724" x2="69.69" y2="52.296" gradientUnits="userSpaceOnUse">
<stop stop-color="#56B60E"/>
<stop offset="0.5" stop-color="#67C50D"/>
<stop offset="1" stop-color="#78D30C"/>
</linearGradient>
<clipPath id="clip0_3016_26501">
<rect width="72" height="72" fill="white"/>
</clipPath>
</defs>
</svg>
