<svg width="72" height="72" viewBox="0 0 72 72" fill="none" xmlns="http://www.w3.org/2000/svg">
<g clip-path="url(#clip0_3016_25718)">
<mask id="mask0_3016_25718" style="mask-type:luminance" maskUnits="userSpaceOnUse" x="0" y="0" width="72" height="72">
<path d="M72 0H0V72H72V0Z" fill="white"/>
</mask>
<g mask="url(#mask0_3016_25718)">
<mask id="mask1_3016_25718" style="mask-type:luminance" maskUnits="userSpaceOnUse" x="-1" y="-1" width="74" height="74">
<path d="M-0.25 -0.25H72.25V72.25H-0.25V-0.25Z" fill="white"/>
</mask>
<g mask="url(#mask1_3016_25718)">
<path d="M35.9193 17.4488L29.5681 23.7159L35.436 29.5639C36.455 30.5795 38.1071 30.5795 39.126 29.5639L45.4774 23.2967L39.6093 17.4488C39.0999 16.941 38.4321 16.6871 37.7645 16.687C37.0966 16.687 36.4289 16.9409 35.9193 17.4488Z" fill="url(#paint0_linear_3016_25718)"/>
<path d="M35.9195 17.4488L30.0515 23.2967L46.4511 39.6405H38.6049C37.1663 39.6405 36 40.8067 36 42.2454V47.9065C36 49.3451 37.1663 50.5114 38.6049 50.5114H56.7846H62.4825C62.9995 50.5114 63.4813 50.3608 63.8865 50.1011C64.6088 49.638 65.0874 48.8281 65.0874 47.9065V24.1274C65.0874 22.6889 63.9211 21.5226 62.4825 21.5226H56.7846C55.3458 21.5226 54.1796 22.6889 54.1796 24.1274V31.9694L39.6095 17.4488C39.1 16.9409 38.4323 16.687 37.7646 16.687C37.0967 16.687 36.429 16.9409 35.9195 17.4488Z" fill="url(#paint1_linear_3016_25718)"/>
<path d="M12.7805 20.011L8.75765 24.0203C7.73866 25.0358 7.73866 26.6824 8.75765 27.6979L11.351 30.1524C12.37 31.1681 14.0221 31.1681 15.041 30.1524L19.064 26.1433C20.083 25.1277 20.083 23.4812 19.064 22.4657L16.4706 20.011C15.9611 19.5031 15.2933 19.2493 14.6256 19.2493C13.9578 19.2493 13.29 19.5031 12.7805 20.011Z" fill="url(#paint2_linear_3016_25718)"/>
</g>
</g>
</g>
<defs>
<linearGradient id="paint0_linear_3016_25718" x1="20.8965" y1="39.9008" x2="41.4076" y2="19.662" gradientUnits="userSpaceOnUse">
<stop stop-color="#33990F"/>
<stop offset="0.5" stop-color="#218A10"/>
<stop offset="1" stop-color="#107C10"/>
</linearGradient>
<linearGradient id="paint1_linear_3016_25718" x1="33.9311" y1="19.7668" x2="64.4433" y2="49.7582" gradientUnits="userSpaceOnUse">
<stop stop-color="#56B60E"/>
<stop offset="0.5" stop-color="#67C50D"/>
<stop offset="1" stop-color="#78D30C"/>
</linearGradient>
<linearGradient id="paint2_linear_3016_25718" x1="11.0428" y1="21.9398" x2="28.8056" y2="39.9221" gradientUnits="userSpaceOnUse">
<stop stop-color="#0B6413"/>
<stop offset="0.5" stop-color="#0E7012"/>
<stop offset="1" stop-color="#107C10"/>
</linearGradient>
<clipPath id="clip0_3016_25718">
<rect width="72" height="72" fill="white"/>
</clipPath>
</defs>
</svg>
