<svg width="72" height="72" viewBox="0 0 72 72" fill="none" xmlns="http://www.w3.org/2000/svg">
<g clip-path="url(#clip0_3016_25880)">
<mask id="mask0_3016_25880" style="mask-type:luminance" maskUnits="userSpaceOnUse" x="0" y="0" width="72" height="72">
<path d="M72 0H0V72H72V0Z" fill="white"/>
</mask>
<g mask="url(#mask0_3016_25880)">
<mask id="mask1_3016_25880" style="mask-type:luminance" maskUnits="userSpaceOnUse" x="-1" y="-1" width="74" height="74">
<path d="M-0.25 -0.25H72.25V72.25H-0.25V-0.25Z" fill="white"/>
</mask>
<g mask="url(#mask1_3016_25880)">
<g opacity="0.65">
<path d="M47.999 29.5255L42.1386 35.3659L46.4375 39.6358H38.6016C37.1648 39.6358 36 40.8005 36 42.2373V47.891C36 49.3278 37.1648 50.4925 38.6016 50.4925H56.7575H62.448C62.9643 50.4925 63.4455 50.3421 63.8502 50.0827C64.5715 49.6203 65.0495 48.8114 65.0495 47.891V24.1429C65.0495 22.7063 63.8847 21.5415 62.448 21.5415H56.7575C55.3206 21.5415 54.1559 22.7063 54.1559 24.1429V31.9747L51.6842 29.5255C51.1754 29.0183 50.5085 28.7648 49.8416 28.7648C49.1747 28.7648 48.5078 29.0183 47.999 29.5255Z" fill="url(#paint0_linear_3016_25880)"/>
</g>
<path d="M12.8108 20.0317L8.79315 24.0358C7.77549 25.05 7.77549 26.6944 8.79315 27.7086L22.0178 40.8765C23.0355 41.8908 24.6855 41.8908 25.703 40.8765L29.7208 36.8727C30.7385 35.8584 30.7385 34.2141 29.7208 33.1999L16.496 20.0317C15.9872 19.5245 15.3203 19.271 14.6535 19.271C13.9865 19.271 13.3196 19.5245 12.8108 20.0317Z" fill="url(#paint1_linear_3016_25880)"/>
</g>
</g>
</g>
<defs>
<linearGradient id="paint0_linear_3016_25880" x1="33.9338" y1="19.788" x2="64.4062" y2="49.7403" gradientUnits="userSpaceOnUse">
<stop stop-color="#56B60E"/>
<stop offset="0.5" stop-color="#67C50D"/>
<stop offset="1" stop-color="#78D30C"/>
</linearGradient>
<linearGradient id="paint1_linear_3016_25880" x1="11.0753" y1="21.9581" x2="28.815" y2="39.9169" gradientUnits="userSpaceOnUse">
<stop stop-color="#0B6413"/>
<stop offset="0.5" stop-color="#0E7012"/>
<stop offset="1" stop-color="#107C10"/>
</linearGradient>
<clipPath id="clip0_3016_25880">
<rect width="72" height="72" fill="white"/>
</clipPath>
</defs>
</svg>
