<svg width="72" height="72" viewBox="0 0 72 72" fill="none" xmlns="http://www.w3.org/2000/svg">
<g clip-path="url(#clip0_3633_4261)">
<mask id="mask0_3633_4261" style="mask-type:luminance" maskUnits="userSpaceOnUse" x="0" y="0" width="72" height="72">
<path d="M72 0H0V72H72V0Z" fill="white"/>
</mask>
<g mask="url(#mask0_3633_4261)">
<mask id="mask1_3633_4261" style="mask-type:luminance" maskUnits="userSpaceOnUse" x="-1" y="-1" width="74" height="74">
<path d="M-0.25 -0.25H72.25V72.25H-0.25V-0.25Z" fill="white"/>
</mask>
<g mask="url(#mask1_3633_4261)">
<path d="M36.4294 21.0178L1.90573 31.8153C0.78318 32.1663 0.0119883 33.1131 -0.169008 34.1991L-0.171067 35.1713C-0.148216 35.3118 -0.115233 35.4524 -0.0715419 35.5921L10.7257 70.1161C11.0556 71.1709 11.9118 71.9155 12.9149 72.1516L14.2767 72.1545C14.3522 72.1372 14.4274 72.1168 14.5026 72.0932L49.0266 61.2959C50.6156 60.7989 51.5007 59.108 51.0037 57.5189L40.2064 22.9951C39.8037 21.7078 38.6175 20.8824 37.3367 20.8797C37.0366 20.879 36.731 20.9235 36.4294 21.0178Z" fill="url(#paint0_linear_3633_4261)"/>
<path d="M8.15327 29.8612L1.90492 31.8153C1.55583 31.9244 1.24077 32.0913 0.966857 32.302C0.358418 33.1237 -0.0459084 34.1059 -0.171447 35.1734C-0.148737 35.313 -0.115754 35.453 -0.0723516 35.5921L10.7251 70.1161C11.0242 71.0726 11.7562 71.7742 12.638 72.0726L14.5549 72.0767L49.0259 61.2959C50.615 60.7989 51.5002 59.108 51.0032 57.519L42.376 29.9337L8.15327 29.8612Z" fill="url(#paint1_linear_3633_4261)"/>
<path d="M8.15342 29.8612L1.90492 31.8153C1.55583 31.9244 1.24077 32.0913 0.966857 32.302C0.358418 33.1237 -0.0459084 34.1059 -0.171447 35.1734C-0.148737 35.313 -0.115754 35.453 -0.0723516 35.5921L6.49142 56.5284L48.3007 52.0127L42.376 29.9337L8.15342 29.8612Z" fill="url(#paint2_linear_3633_4261)"/>
<path d="M30.4731 2.10702L21.002 37.7184C20.5662 39.3574 21.5417 41.0393 23.1806 41.4754L58.7917 50.9462C60.4306 51.3821 62.1126 50.4068 62.5485 48.7677L72.0196 13.1567C72.4555 11.5176 71.4801 9.83557 69.841 9.39966L34.23 -0.0712897C33.9636 -0.142169 33.6963 -0.175691 33.4332 -0.175201C32.0774 -0.172534 30.8381 0.734607 30.4731 2.10702Z" fill="url(#paint3_linear_3633_4261)"/>
<path d="M11.7636 14.803C8.42466 14.8051 5.71944 17.5136 5.7215 20.8526L5.74014 51.0824C5.7422 54.4215 8.45075 57.1265 11.7897 57.1245L60.1573 57.0946C63.4962 57.0926 66.2014 54.3842 66.1994 51.0451L66.1807 20.8153C66.1787 17.4764 63.4701 14.7712 60.1312 14.7732L11.7636 14.803Z" fill="url(#paint4_linear_3633_4261)"/>
<path d="M11.7636 14.803C8.42466 14.8051 5.71944 17.5136 5.7215 20.8526L5.74014 51.0824C5.7422 54.4215 8.45075 57.1265 11.7897 57.1245L60.1573 57.0946C63.4962 57.0926 66.2014 54.3842 66.1994 51.0451L66.1807 20.8153C66.1787 17.4764 63.4701 14.7712 60.1312 14.7732L11.7636 14.803Z" fill="url(#paint5_linear_3633_4261)"/>
<path d="M11.7636 14.803C8.42466 14.8051 5.71944 17.5136 5.7215 20.8526L5.74014 51.0824C5.7422 54.4215 8.45075 57.1265 11.7897 57.1245L60.1573 57.0946C63.4962 57.0926 66.2014 54.3842 66.1994 51.0451L66.1807 20.8153C66.1787 17.4764 63.4701 14.7712 60.1312 14.7732L11.7636 14.803Z" fill="url(#paint6_radial_3633_4261)"/>
<path d="M34.1929 47.867C32.058 48.4885 28.929 43.6093 27.2042 36.9691C25.4794 30.3289 25.8119 24.4421 27.947 23.8206C30.082 23.199 33.211 28.0781 34.9356 34.7184C36.6604 41.3585 36.3279 47.2454 34.1929 47.867Z" fill="#FFA0BA"/>
<path d="M27.2835 24.2351L11.4135 38.3691C9.3356 40.2393 10.2688 43.8325 12.9579 44.3148L13.3694 44.3887C16.7166 44.9892 19.5823 47.2524 20.9862 50.4044C21.3327 51.0307 22.0922 51.2409 22.6828 50.874C23.2733 50.5073 23.4711 49.7025 23.1248 49.0763C22.5387 47.6831 23.6688 46.2194 25.137 46.4694L33.5936 47.9104L33.5917 47.9031C31.5038 47.5927 28.7728 43.0095 27.2038 36.9688C25.6768 31.0904 25.7624 25.8022 27.2835 24.2351Z" fill="white"/>
<path d="M37.0858 44.0599C37.1519 43.2604 37.8537 42.6657 38.6532 42.7317L48.2517 43.5251C49.0514 43.5912 49.6461 44.2929 49.58 45.0926C49.5139 45.8922 48.812 46.4869 48.0124 46.4207L38.4141 45.6276C37.6144 45.5614 37.0197 44.8596 37.0858 44.0599Z" fill="white"/>
<path d="M37.0645 35.9878C37.0645 35.1854 37.7149 34.535 38.5173 34.535L50.6457 34.5355C51.4481 34.5355 52.0986 35.186 52.0986 35.9884C52.0986 36.7908 51.4481 37.4412 50.6457 37.4412L38.5173 37.4407C37.7149 37.4407 37.0645 36.7902 37.0645 35.9878Z" fill="white"/>
<path d="M37.0904 27.7771C37.0243 26.9775 37.6189 26.2756 38.4186 26.2095L50.5069 25.2103C51.3066 25.1442 52.0084 25.7389 52.0745 26.5385C52.1407 27.3382 51.546 28.04 50.7464 28.1062L38.6581 29.1053C37.8584 29.1714 37.1566 28.5768 37.0904 27.7771Z" fill="white"/>
</g>
</g>
</g>
<defs>
<linearGradient id="paint0_linear_3633_4261" x1="29.9294" y1="69.4958" x2="20.444" y2="20.1683" gradientUnits="userSpaceOnUse">
<stop stop-color="#8C48FF"/>
<stop offset="0.5" stop-color="#4E6FEE"/>
<stop offset="1" stop-color="#1097DD"/>
</linearGradient>
<linearGradient id="paint1_linear_3633_4261" x1="22.4548" y1="48.6898" x2="22.887" y2="63.3839" gradientUnits="userSpaceOnUse">
<stop stop-color="#47229F" stop-opacity="0"/>
<stop offset="0.25" stop-color="#28125D" stop-opacity="0.4"/>
<stop offset="0.5" stop-color="#09011B" stop-opacity="0.8"/>
<stop offset="0.75" stop-color="#28125D" stop-opacity="0.4"/>
<stop offset="1" stop-color="#47229F" stop-opacity="0"/>
</linearGradient>
<linearGradient id="paint2_linear_3633_4261" x1="1.59243" y1="36.6412" x2="12.8252" y2="36.1817" gradientUnits="userSpaceOnUse">
<stop stop-color="#47229F" stop-opacity="0"/>
<stop offset="0.25" stop-color="#28125D" stop-opacity="0.405"/>
<stop offset="0.5" stop-color="#09011B" stop-opacity="0.81"/>
<stop offset="0.75" stop-color="#28125D" stop-opacity="0.405"/>
<stop offset="1" stop-color="#47229F" stop-opacity="0"/>
</linearGradient>
<linearGradient id="paint3_linear_3633_4261" x1="48.3984" y1="34.9348" x2="39.9237" y2="-8.06137" gradientUnits="userSpaceOnUse">
<stop stop-color="#00AEFF"/>
<stop offset="0.5" stop-color="#1181E7"/>
<stop offset="1" stop-color="#2253CE"/>
</linearGradient>
<linearGradient id="paint4_linear_3633_4261" x1="41.0004" y1="39.4912" x2="64.8815" y2="57.5298" gradientUnits="userSpaceOnUse">
<stop stop-color="#F2598A"/>
<stop offset="0.5" stop-color="#F95C63"/>
<stop offset="1" stop-color="#FF5F3D"/>
</linearGradient>
<linearGradient id="paint5_linear_3633_4261" x1="71.7869" y1="65.0397" x2="46.0965" y2="43.9946" gradientUnits="userSpaceOnUse">
<stop stop-color="#FFB152"/>
<stop offset="0.5" stop-color="#FFB152" stop-opacity="0.5"/>
<stop offset="1" stop-color="#FFB152" stop-opacity="0"/>
</linearGradient>
<radialGradient id="paint6_radial_3633_4261" cx="0" cy="0" r="1" gradientUnits="userSpaceOnUse" gradientTransform="translate(1.09716 11.7881) rotate(-0.0353293) scale(28.049 28.049)">
<stop stop-color="#A44CE3"/>
<stop offset="0.5" stop-color="#A44CE3" stop-opacity="0.5"/>
<stop offset="1" stop-color="#A44CE3" stop-opacity="0"/>
</radialGradient>
<clipPath id="clip0_3633_4261">
<rect width="72" height="72" fill="white"/>
</clipPath>
</defs>
</svg>
