<svg width="72" height="72" viewBox="0 0 72 72" fill="none" xmlns="http://www.w3.org/2000/svg">
<g clip-path="url(#clip0_3633_3359)">
<mask id="mask0_3633_3359" style="mask-type:luminance" maskUnits="userSpaceOnUse" x="0" y="0" width="72" height="72">
<path d="M72 0H0V72H72V0Z" fill="white"/>
</mask>
<g mask="url(#mask0_3633_3359)">
<mask id="mask1_3633_3359" style="mask-type:luminance" maskUnits="userSpaceOnUse" x="-1" y="-1" width="74" height="74">
<path d="M-0.25 -0.25H72.25V72.25H-0.25V-0.25Z" fill="white"/>
</mask>
<g mask="url(#mask1_3633_3359)">
<path d="M39.3324 26.0068L13.9106 26.2579C13.084 26.266 12.3728 26.7464 12.0304 27.4403L11.8315 28.0939C11.8183 28.1932 11.8119 28.2944 11.8129 28.3973L12.0638 53.8193C12.0715 54.596 12.4963 55.271 13.1232 55.6336L14.0389 55.9122C14.0932 55.9159 14.148 55.9175 14.2033 55.9169L39.6254 55.6659C40.7955 55.6544 41.7345 54.6965 41.7229 53.5264L41.4719 28.1045C41.4625 27.1565 40.8321 26.3602 39.9709 26.0982C39.7691 26.0368 39.5545 26.0046 39.3324 26.0068Z" fill="url(#paint0_linear_3633_3359)"/>
<path d="M18.5113 26.2124L13.9102 26.2578C13.6532 26.2603 13.4073 26.3086 13.1802 26.3947C12.6039 26.8239 12.1323 27.4026 11.831 28.0954C11.8179 28.1939 11.8117 28.2948 11.8126 28.3972L12.0637 53.8193C12.0706 54.5236 12.4205 55.1443 12.9532 55.5243L14.2421 55.9165L39.6251 55.6659C40.7953 55.6543 41.7343 54.6965 41.7228 53.5264L41.5223 33.2137L18.5113 26.2124Z" fill="url(#paint1_linear_3633_3359)"/>
<path d="M18.5114 26.2125L13.9102 26.2578C13.6532 26.2603 13.4073 26.3086 13.1802 26.3947C12.6039 26.8239 12.1323 27.4026 11.831 28.0954C11.8179 28.1939 11.8117 28.2948 11.8126 28.3972L11.9755 43.8171L41.0231 49.2726L41.5223 33.2137L18.5114 26.2125Z" fill="url(#paint2_linear_3633_3359)"/>
<path d="M28.3158 19.3765L28.2816 48.2011C28.2802 49.5277 29.3544 50.6043 30.6811 50.606L59.5054 50.6401C60.8319 50.6417 61.9087 49.5675 61.9102 48.2408L61.9445 19.4164C61.9461 18.0897 60.8718 17.013 59.5451 17.0115L30.7208 16.9773C30.5051 16.977 30.2963 17.0052 30.0975 17.0582C29.0728 17.3316 28.3172 18.2656 28.3158 19.3765Z" fill="url(#paint3_linear_3633_3359)"/>
<path d="M7.46191 15.0901C3.80702 15.4085 1.10205 18.6295 1.42035 22.2844L4.3022 55.3747C4.62053 59.0297 7.84159 61.7345 11.4965 61.4162L64.4408 56.8053C68.0957 56.487 70.8007 53.2661 70.4824 49.611L67.6005 16.5207C67.2822 12.8659 64.0611 10.1609 60.4062 10.4792L7.46191 15.0901Z" fill="url(#paint4_linear_3633_3359)"/>
<path d="M7.46191 15.0901C3.80702 15.4085 1.10205 18.6295 1.42035 22.2844L4.3022 55.3747C4.62053 59.0297 7.84159 61.7345 11.4965 61.4162L64.4408 56.8053C68.0957 56.487 70.8007 53.2661 70.4824 49.611L67.6005 16.5207C67.2822 12.8659 64.0611 10.1609 60.4062 10.4792L7.46191 15.0901Z" fill="url(#paint5_linear_3633_3359)"/>
<path d="M7.46191 15.0901C3.80702 15.4085 1.10205 18.6295 1.42035 22.2844L4.3022 55.3747C4.62053 59.0297 7.84159 61.7345 11.4965 61.4162L64.4408 56.8053C68.0957 56.487 70.8007 53.2661 70.4824 49.611L67.6005 16.5207C67.2822 12.8659 64.0611 10.1609 60.4062 10.4792L7.46191 15.0901Z" fill="url(#paint6_radial_3633_3359)"/>
<path d="M30.0289 35.5162C28.9706 38.2199 21.4302 37.5685 13.1872 34.0612C4.94414 30.554 -0.880197 25.5191 0.178223 22.8153C1.23664 20.1115 8.77688 20.7628 17.02 24.2703C25.2628 27.7774 31.0873 32.8124 30.0289 35.5162Z" fill="#FFA0BA"/>
<path d="M0.0786533 23.8318L2.05252 51.5106C2.33124 55.1503 6.79169 57.0483 9.43345 54.651L9.83776 54.2843C13.1262 51.3005 17.7508 50.1397 22.13 51.1992C23.0539 51.3398 23.8766 50.7217 23.9678 49.8184C24.059 48.9154 23.3841 48.0695 22.4603 47.9287C20.5523 47.4248 19.9386 45.0894 21.3673 43.77L29.5965 36.1707L29.5875 36.1669C27.6027 38.0792 20.6856 37.252 13.1868 34.0614C5.88938 30.9566 0.487476 26.654 0.0786533 23.8318Z" fill="white"/>
</g>
</g>
</g>
<defs>
<linearGradient id="paint0_linear_3633_3359" x1="25.1105" y1="57.3033" x2="28.7496" y2="22.1877" gradientUnits="userSpaceOnUse">
<stop stop-color="#8C48FF"/>
<stop offset="0.5" stop-color="#4E6FEE"/>
<stop offset="1" stop-color="#1097DD"/>
</linearGradient>
<linearGradient id="paint1_linear_3633_3359" x1="24.3085" y1="41.7862" x2="20.0136" y2="59.6168" gradientUnits="userSpaceOnUse">
<stop stop-color="#47229F" stop-opacity="0"/>
<stop offset="0.25" stop-color="#28125D" stop-opacity="0.4"/>
<stop offset="0.5" stop-color="#09011B" stop-opacity="0.8"/>
<stop offset="0.75" stop-color="#28125D" stop-opacity="0.4"/>
<stop offset="1" stop-color="#47229F" stop-opacity="0"/>
</linearGradient>
<linearGradient id="paint2_linear_3633_3359" x1="12.7196" y1="29.4413" x2="20.3706" y2="31.4141" gradientUnits="userSpaceOnUse">
<stop stop-color="#47229F" stop-opacity="0"/>
<stop offset="0.25" stop-color="#28125D" stop-opacity="0.405"/>
<stop offset="0.5" stop-color="#09011B" stop-opacity="0.81"/>
<stop offset="0.75" stop-color="#28125D" stop-opacity="0.405"/>
<stop offset="1" stop-color="#47229F" stop-opacity="0"/>
</linearGradient>
<linearGradient id="paint3_linear_3633_3359" x1="48.4413" y1="40.6127" x2="33.427" y2="9.79569" gradientUnits="userSpaceOnUse">
<stop stop-color="#00AEFF"/>
<stop offset="0.5" stop-color="#1181E7"/>
<stop offset="1" stop-color="#2253CE"/>
</linearGradient>
<linearGradient id="paint4_linear_3633_3359" x1="41.8039" y1="39.3484" x2="69.6535" y2="56.8345" gradientUnits="userSpaceOnUse">
<stop stop-color="#F2598A"/>
<stop offset="0.5" stop-color="#F95C63"/>
<stop offset="1" stop-color="#FF5F3D"/>
</linearGradient>
<linearGradient id="paint5_linear_3633_3359" x1="77.9236" y1="64.4017" x2="47.8087" y2="43.7958" gradientUnits="userSpaceOnUse">
<stop stop-color="#FFB152"/>
<stop offset="0.5" stop-color="#FFB152" stop-opacity="0.5"/>
<stop offset="1" stop-color="#FFB152" stop-opacity="0"/>
</linearGradient>
<radialGradient id="paint6_radial_3633_3359" cx="0" cy="0" r="1" gradientUnits="userSpaceOnUse" gradientTransform="translate(-4.49985 12.7994) rotate(-4.97737) scale(30.8193 30.8193)">
<stop stop-color="#A44CE3"/>
<stop offset="0.5" stop-color="#A44CE3" stop-opacity="0.5"/>
<stop offset="1" stop-color="#A44CE3" stop-opacity="0"/>
</radialGradient>
<clipPath id="clip0_3633_3359">
<rect width="72" height="72" fill="white"/>
</clipPath>
</defs>
</svg>
