<svg width="72" height="72" viewBox="0 0 72 72" fill="none" xmlns="http://www.w3.org/2000/svg">
<g clip-path="url(#clip0_3016_26042)">
<mask id="mask0_3016_26042" style="mask-type:luminance" maskUnits="userSpaceOnUse" x="0" y="0" width="72" height="72">
<path d="M72 0H0V72H72V0Z" fill="white"/>
</mask>
<g mask="url(#mask0_3016_26042)">
<mask id="mask1_3016_26042" style="mask-type:luminance" maskUnits="userSpaceOnUse" x="-1" y="-1" width="74" height="74">
<path d="M-0.25 -0.25H72.25V72.25H-0.25V-0.25Z" fill="white"/>
</mask>
<g mask="url(#mask1_3016_26042)">
<path d="M12.5759 19.87L8.51756 23.9146C7.48959 24.9391 7.48959 26.6002 8.51756 27.6246L22.9505 42.0085C23.9784 43.033 25.6452 43.033 26.673 42.0085L30.7315 37.9641C31.7595 36.9395 31.7595 35.2785 30.7315 34.2541L16.2985 19.87C15.7845 19.3577 15.1109 19.1016 14.4373 19.1016C13.7635 19.1016 13.0899 19.3577 12.5759 19.87Z" fill="url(#paint0_linear_3016_26042)"/>
<path d="M29.916 23.2606L17.0309 36.1091L22.9505 42.0086C23.9784 43.0332 25.6452 43.0332 26.673 42.0086L39.5583 29.1601L33.6385 23.2606C33.1246 22.7484 32.4509 22.4923 31.7774 22.4922C31.1037 22.4922 30.4301 22.7483 29.916 23.2606Z" fill="url(#paint1_linear_3016_26042)"/>
</g>
</g>
</g>
<defs>
<linearGradient id="paint0_linear_3016_26042" x1="10.8228" y1="21.8159" x2="28.7422" y2="39.9566" gradientUnits="userSpaceOnUse">
<stop stop-color="#0B6413"/>
<stop offset="0.5" stop-color="#0E7012"/>
<stop offset="1" stop-color="#107C10"/>
</linearGradient>
<linearGradient id="paint1_linear_3016_26042" x1="20.7634" y1="39.9352" x2="41.4553" y2="19.5179" gradientUnits="userSpaceOnUse">
<stop stop-color="#33990F"/>
<stop offset="0.5" stop-color="#218A10"/>
<stop offset="1" stop-color="#107C10"/>
</linearGradient>
<clipPath id="clip0_3016_26042">
<rect width="72" height="72" fill="white"/>
</clipPath>
</defs>
</svg>
