<svg width="72" height="72" viewBox="0 0 72 72" fill="none" xmlns="http://www.w3.org/2000/svg">
<g clip-path="url(#clip0_3016_26474)">
<mask id="mask0_3016_26474" style="mask-type:luminance" maskUnits="userSpaceOnUse" x="0" y="0" width="72" height="72">
<path d="M72 0H0V72H72V0Z" fill="white"/>
</mask>
<g mask="url(#mask0_3016_26474)">
<mask id="mask1_3016_26474" style="mask-type:luminance" maskUnits="userSpaceOnUse" x="-1" y="-1" width="74" height="74">
<path d="M-0.25 -0.25H72.25V72.25H-0.25V-0.25Z" fill="white"/>
</mask>
<g mask="url(#mask1_3016_26474)">
<path d="M9.20862 17.5513L4.56687 22.1773C3.39112 23.349 3.39112 25.2489 4.56687 26.4206L21.0745 42.8722C22.2503 44.044 24.1566 44.044 25.3322 42.8722L29.9741 38.2464C31.1498 37.0745 31.1498 35.1748 29.9741 34.0031L13.4663 17.5513C12.8784 16.9653 12.108 16.6724 11.3375 16.6724C10.5669 16.6724 9.79649 16.9653 9.20862 17.5513Z" fill="url(#paint0_linear_3016_26474)"/>
<path d="M35.9068 14.595L14.304 36.1248L21.0745 42.8724C22.2502 44.0442 24.1565 44.0442 25.3321 42.8724L46.9353 21.3425L40.1645 14.595C39.5768 14.0091 38.8062 13.7162 38.0359 13.7161C37.2653 13.7161 36.4948 14.009 35.9068 14.595Z" fill="url(#paint1_linear_3016_26474)"/>
<path d="M35.9071 14.595L29.1365 21.3425L47.7399 39.8808H38.6868C37.0268 39.8808 35.6811 41.2263 35.6811 42.8863V49.4183C35.6811 51.0782 37.0268 52.4239 38.6868 52.4239H59.663H66.2375C66.834 52.4239 67.3899 52.2501 67.8575 51.9504C68.6909 51.4161 69.243 50.4816 69.243 49.4183V21.9812C69.243 20.3214 67.8973 18.9757 66.2375 18.9757H59.663C58.0029 18.9757 56.6573 20.3214 56.6573 21.9812V31.0295L40.1648 14.595C39.5769 14.009 38.8065 13.7161 38.036 13.7161C37.2654 13.7161 36.495 14.009 35.9071 14.595Z" fill="url(#paint2_linear_3016_26474)"/>
</g>
</g>
</g>
<defs>
<linearGradient id="paint0_linear_3016_26474" x1="7.20349" y1="19.7768" x2="27.6988" y2="40.5254" gradientUnits="userSpaceOnUse">
<stop stop-color="#0B6413"/>
<stop offset="0.5" stop-color="#0E7012"/>
<stop offset="1" stop-color="#107C10"/>
</linearGradient>
<linearGradient id="paint1_linear_3016_26474" x1="18.573" y1="40.5009" x2="42.2394" y2="17.1486" gradientUnits="userSpaceOnUse">
<stop stop-color="#33990F"/>
<stop offset="0.5" stop-color="#218A10"/>
<stop offset="1" stop-color="#107C10"/>
</linearGradient>
<linearGradient id="paint2_linear_3016_26474" x1="33.6128" y1="17.2696" x2="68.8188" y2="51.8747" gradientUnits="userSpaceOnUse">
<stop stop-color="#56B60E"/>
<stop offset="0.5" stop-color="#67C50D"/>
<stop offset="1" stop-color="#78D30C"/>
</linearGradient>
<clipPath id="clip0_3016_26474">
<rect width="72" height="72" fill="white"/>
</clipPath>
</defs>
</svg>
