<svg width="72" height="72" viewBox="0 0 72 72" fill="none" xmlns="http://www.w3.org/2000/svg">
<g clip-path="url(#clip0_3015_25529)">
<mask id="mask0_3015_25529" style="mask-type:luminance" maskUnits="userSpaceOnUse" x="0" y="0" width="72" height="72">
<path d="M72 0H0V72H72V0Z" fill="white"/>
</mask>
<g mask="url(#mask0_3015_25529)">
<mask id="mask1_3015_25529" style="mask-type:luminance" maskUnits="userSpaceOnUse" x="-1" y="-1" width="74" height="74">
<path d="M-0.25 -0.25H72.25V72.25H-0.25V-0.25Z" fill="white"/>
</mask>
<g mask="url(#mask1_3015_25529)">
<path d="M11.2953 19.8417L6.55075 24.5702C5.34897 25.7679 5.34897 27.7099 6.55075 28.9075L20.744 43.0244C21.9458 44.2222 23.8944 44.2222 25.096 43.0244L29.8407 38.2961C31.0425 37.0983 31.0425 35.1565 29.8407 33.9588L15.6473 19.8417C15.0464 19.2428 14.2589 18.9434 13.4714 18.9434C12.6837 18.9434 11.8962 19.2428 11.2953 19.8417Z" fill="url(#paint0_linear_3015_25529)"/>
<path d="M35.905 14.1208L13.8236 36.1275L20.7441 43.0245C21.9459 44.2223 23.8944 44.2223 25.0961 43.0245L47.1777 21.0178L40.257 14.1208C39.6562 13.522 38.8686 13.2225 38.0812 13.2224C37.2935 13.2224 36.506 13.5218 35.905 14.1208Z" fill="url(#paint1_linear_3015_25529)"/>
<path d="M35.9051 14.1208L28.9845 21.0178L48.326 40.2936H39.0723C37.3756 40.2936 36.0001 41.6689 36.0001 43.3657V50.0423C36.0001 51.7391 37.3756 53.1146 39.0723 53.1146H60.5131H67.2333C67.843 53.1146 68.4112 52.9369 68.8891 52.6306C69.741 52.0844 70.3054 51.1292 70.3054 50.0423V21.9976C70.3054 20.301 68.9299 18.9255 67.2333 18.9255H60.5131C58.8163 18.9255 57.4409 20.301 57.4409 21.9976V31.2463L40.2571 14.1208C39.6562 13.5218 38.8687 13.2224 38.0812 13.2224C37.2935 13.2224 36.506 13.5218 35.9051 14.1208Z" fill="url(#paint2_linear_3015_25529)"/>
</g>
</g>
</g>
<defs>
<linearGradient id="paint0_linear_3015_25529" x1="6.56579" y1="19.4175" x2="27.5151" y2="40.6256" gradientUnits="userSpaceOnUse">
<stop stop-color="#0B6413"/>
<stop offset="0.5" stop-color="#0E7012"/>
<stop offset="1" stop-color="#107C10"/>
</linearGradient>
<linearGradient id="paint1_linear_3015_25529" x1="18.1872" y1="40.6005" x2="42.3778" y2="16.731" gradientUnits="userSpaceOnUse">
<stop stop-color="#33990F"/>
<stop offset="0.5" stop-color="#218A10"/>
<stop offset="1" stop-color="#107C10"/>
</linearGradient>
<linearGradient id="paint2_linear_3015_25529" x1="33.56" y1="16.8547" x2="69.5457" y2="52.2262" gradientUnits="userSpaceOnUse">
<stop stop-color="#56B60E"/>
<stop offset="0.5" stop-color="#67C50D"/>
<stop offset="1" stop-color="#78D30C"/>
</linearGradient>
<clipPath id="clip0_3015_25529">
<rect width="72" height="72" fill="white"/>
</clipPath>
</defs>
</svg>
