<svg width="72" height="72" viewBox="0 0 72 72" fill="none" xmlns="http://www.w3.org/2000/svg">
<g clip-path="url(#clip0_3633_2338)">
<mask id="mask0_3633_2338" style="mask-type:luminance" maskUnits="userSpaceOnUse" x="0" y="0" width="72" height="72">
<path d="M72 0H0V72H72V0Z" fill="white"/>
</mask>
<g mask="url(#mask0_3633_2338)">
<mask id="mask1_3633_2338" style="mask-type:luminance" maskUnits="userSpaceOnUse" x="-1" y="-1" width="74" height="74">
<path d="M-0.25 -0.25H72.25V72.25H-0.25V-0.25Z" fill="white"/>
</mask>
<g mask="url(#mask1_3633_2338)">
<path d="M38.6502 24.2683L9.79772 27.4429C8.8596 27.5461 8.10619 28.1726 7.79606 28.9999L7.64441 29.7651C7.64071 29.8793 7.64499 29.9951 7.65783 30.1119L10.8322 58.9645C10.9292 59.8461 11.4885 60.5646 12.242 60.9053L13.3139 61.1177C13.376 61.1157 13.4384 61.1113 13.5012 61.1043L42.3539 57.9299C43.6819 57.7837 44.6398 56.5888 44.4937 55.2608L41.3192 26.4082C41.2008 25.3324 40.3941 24.4994 39.3859 24.2995C39.1497 24.2527 38.9022 24.2406 38.6502 24.2683Z" fill="url(#paint0_linear_3633_2338)"/>
<path d="M15.0194 26.8684L9.79745 27.4429C9.50573 27.4749 9.23188 27.5577 8.98366 27.6813C8.37773 28.2345 7.90776 28.9455 7.64414 29.7668C7.64049 29.8802 7.64486 29.9955 7.65756 30.1118L10.8321 58.9645C10.92 59.7639 11.3882 60.4293 12.0365 60.8004L13.5454 61.0995L42.3538 57.9298C43.6818 57.7837 44.6398 56.5888 44.4937 55.2608L41.9573 32.207L15.0194 26.8684Z" fill="url(#paint1_linear_3633_2338)"/>
<path d="M15.0195 26.8684L9.79745 27.4429C9.50573 27.4749 9.23188 27.5577 8.98366 27.6813C8.37773 28.2345 7.90776 28.9455 7.64414 29.7668C7.64049 29.8802 7.64486 29.9955 7.65756 30.1118L9.59521 47.6114L43.2153 50.5078L41.9573 32.207L15.0195 26.8684Z" fill="url(#paint2_linear_3633_2338)"/>
<path d="M28.2978 13.6552L25.4699 45.087C25.3399 46.5336 26.4072 47.8117 27.8538 47.942L59.2853 50.7697C60.7318 50.8999 62.0101 49.8326 62.1402 48.386L64.9681 16.9545C65.0983 15.5078 64.0309 14.2295 62.5843 14.0994L31.1528 11.2716C30.9177 11.2504 30.6872 11.2609 30.4652 11.2995C29.3212 11.4984 28.4068 12.4439 28.2978 13.6552Z" fill="url(#paint3_linear_3633_2338)"/>
<path d="M8.93643 14.9209C5.385 15.1253 2.67154 18.1701 2.87591 21.7215L4.7262 53.875C4.93057 57.4266 7.97539 60.1399 11.5268 59.9355L62.9723 56.9751C66.5237 56.7707 69.2372 53.726 69.0328 50.1744L67.1825 18.021C66.9782 14.4695 63.9333 11.7561 60.3819 11.9605L8.93643 14.9209Z" fill="url(#paint4_linear_3633_2338)"/>
<path d="M8.93643 14.9209C5.385 15.1253 2.67154 18.1701 2.87591 21.7215L4.7262 53.875C4.93057 57.4266 7.97539 60.1399 11.5268 59.9355L62.9723 56.9751C66.5237 56.7707 69.2372 53.726 69.0328 50.1744L67.1825 18.021C66.9782 14.4695 63.9333 11.7561 60.3819 11.9605L8.93643 14.9209Z" fill="url(#paint5_linear_3633_2338)"/>
<path d="M8.93643 14.9209C5.385 15.1253 2.67154 18.1701 2.87591 21.7215L4.7262 53.875C4.93057 57.4266 7.97539 60.1399 11.5268 59.9355L62.9723 56.9751C66.5237 56.7707 69.2372 53.726 69.0328 50.1744L67.1825 18.021C66.9782 14.4695 63.9333 11.7561 60.3819 11.9605L8.93643 14.9209Z" fill="url(#paint6_radial_3633_2338)"/>
<path d="M32.9453 39.4874C31.2604 41.5646 24.8241 38.8844 18.5696 33.501C12.3151 28.1177 8.61079 22.0698 10.2958 19.9925C11.9809 17.9153 18.4171 20.5954 24.6715 25.9789C30.9259 31.3621 34.6303 37.4102 32.9453 39.4874Z" fill="#FFA0BA"/>
<path d="M9.92418 20.8569L3.91712 45.7033C3.14403 48.976 6.52838 51.8891 9.51748 50.5236L9.97489 50.3148C13.6956 48.6154 18.0794 48.8896 21.6268 51.0441C22.3984 51.4259 23.2934 51.1134 23.626 50.346C23.9586 49.5789 23.6027 48.6478 22.8313 48.2659C21.2974 47.29 21.4118 45.0686 23.0347 44.31L32.3828 39.9409L32.3759 39.9351C30.099 41.0585 24.259 38.3984 18.5692 33.501C13.0322 28.7353 9.49387 23.4483 9.92418 20.8569Z" fill="white"/>
<path d="M41.9478 46.1989C41.9478 45.2457 42.7205 44.4728 43.6737 44.4727L55.3255 44.4721C56.2788 44.4719 57.0518 45.2446 57.0518 46.198C57.0518 47.1514 56.279 47.9242 55.3256 47.9242L43.6741 47.9251C42.7207 47.9251 41.9478 47.1523 41.9478 46.1989Z" fill="white"/>
<path d="M55.1865 35.9789C55.1865 35.0256 55.9594 34.2527 56.9127 34.2527L58.3465 34.2593C59.2999 34.2593 60.0727 35.0321 60.0727 35.9855C60.0727 36.9389 59.2999 37.7117 58.3465 37.7117L56.9127 37.7052C55.9594 37.7052 55.1865 36.9323 55.1865 35.9789Z" fill="white"/>
<path d="M56.4844 25.4785C56.4844 24.5252 57.2572 23.7523 58.2106 23.7523L58.3465 23.7568C59.2999 23.7568 60.0727 24.5296 60.0727 25.483C60.0727 26.4364 59.2999 27.2092 58.3465 27.2092L58.2106 27.2048C57.2572 27.2048 56.4844 26.4319 56.4844 25.4785Z" fill="white"/>
</g>
</g>
</g>
<defs>
<linearGradient id="paint0_linear_3633_2338" x1="26.0502" y1="61.4398" x2="26.1934" y2="21.1324" gradientUnits="userSpaceOnUse">
<stop stop-color="#8C48FF"/>
<stop offset="0.5" stop-color="#4E6FEE"/>
<stop offset="1" stop-color="#1097DD"/>
</linearGradient>
<linearGradient id="paint1_linear_3633_2338" x1="23.3755" y1="43.9023" x2="20.5934" y2="63.952" gradientUnits="userSpaceOnUse">
<stop stop-color="#47229F" stop-opacity="0"/>
<stop offset="0.25" stop-color="#28125D" stop-opacity="0.4"/>
<stop offset="0.5" stop-color="#09011B" stop-opacity="0.8"/>
<stop offset="0.75" stop-color="#28125D" stop-opacity="0.4"/>
<stop offset="1" stop-color="#47229F" stop-opacity="0"/>
</linearGradient>
<linearGradient id="paint2_linear_3633_2338" x1="8.80662" y1="31.1948" x2="17.7229" y2="32.5666" gradientUnits="userSpaceOnUse">
<stop stop-color="#47229F" stop-opacity="0"/>
<stop offset="0.25" stop-color="#28125D" stop-opacity="0.405"/>
<stop offset="0.5" stop-color="#09011B" stop-opacity="0.81"/>
<stop offset="0.75" stop-color="#28125D" stop-opacity="0.405"/>
<stop offset="1" stop-color="#47229F" stop-opacity="0"/>
</linearGradient>
<linearGradient id="paint3_linear_3633_2338" x1="48.19" y1="38.763" x2="34.7994" y2="3.70159" gradientUnits="userSpaceOnUse">
<stop stop-color="#00AEFF"/>
<stop offset="0.5" stop-color="#1181E7"/>
<stop offset="1" stop-color="#2253CE"/>
</linearGradient>
<linearGradient id="paint4_linear_3633_2338" x1="41.5298" y1="39.4107" x2="68.0237" y2="57.1519" gradientUnits="userSpaceOnUse">
<stop stop-color="#F2598A"/>
<stop offset="0.5" stop-color="#F95C63"/>
<stop offset="1" stop-color="#FF5F3D"/>
</linearGradient>
<linearGradient id="paint5_linear_3633_2338" x1="75.8235" y1="64.7218" x2="47.223" y2="43.8923" gradientUnits="userSpaceOnUse">
<stop stop-color="#FFB152"/>
<stop offset="0.5" stop-color="#FFB152" stop-opacity="0.5"/>
<stop offset="1" stop-color="#FFB152" stop-opacity="0"/>
</linearGradient>
<radialGradient id="paint6_radial_3633_2338" cx="0" cy="0" r="1" gradientUnits="userSpaceOnUse" gradientTransform="translate(-2.59175 12.3599) rotate(-3.29348) scale(29.8833 29.8833)">
<stop stop-color="#A44CE3"/>
<stop offset="0.5" stop-color="#A44CE3" stop-opacity="0.5"/>
<stop offset="1" stop-color="#A44CE3" stop-opacity="0"/>
</radialGradient>
<clipPath id="clip0_3633_2338">
<rect width="72" height="72" fill="white"/>
</clipPath>
</defs>
</svg>
