<svg width="112" height="24" viewBox="0 0 112 24" fill="none" xmlns="http://www.w3.org/2000/svg">
<path fill-rule="evenodd" clip-rule="evenodd" d="M57.5636 4.40454C57.5636 8.67539 58.6563 12.6909 60.5776 16.187C60.9171 11.8765 62.3127 7.86278 64.5053 4.40454H71.706C68.1993 9.26468 66.048 15.1676 65.8061 21.5595H56.9817C53.3872 16.7572 51.2108 10.8318 51.0737 4.40454H57.5636Z" fill="white"/>
<path fill-rule="evenodd" clip-rule="evenodd" d="M79.0536 4.40454C79.0536 8.67539 80.1463 12.6909 82.0676 16.187C82.4071 11.8765 83.8027 7.86278 85.9953 4.40454H93.196C89.6893 9.26468 87.5381 15.1676 87.2961 21.5595H78.4717C74.8772 16.7572 72.7008 10.8318 72.5637 4.40454H79.0536Z" fill="white"/>
<path fill-rule="evenodd" clip-rule="evenodd" d="M24.7318 21.5595C24.3348 15.5868 25.9367 9.50584 29.5374 4.4046H22.3725C20.6913 7.3748 19.7852 10.6649 19.6539 13.9798C18.2173 10.2122 17.8121 6.14115 18.4387 2.2023H12.6613C10.4748 5.80849 9.37461 9.8884 9.36054 13.9712C7.80353 9.47094 7.47631 4.63947 8.37848 0H1.34776C0.147024 8.00097 2.05568 16.3785 7.07385 23.1822H14.1653C13.5175 19.9855 13.5547 16.6775 14.2769 13.4934C14.8563 16.3257 15.9758 19.0694 17.6358 21.5595H24.7318Z" fill="white"/>
<path fill-rule="evenodd" clip-rule="evenodd" d="M38.5076 16.7839C36.224 16.7839 34.6477 15.0817 34.6477 12.982C34.6477 10.8823 36.224 9.18009 38.5076 9.18009C40.7913 9.18009 42.3675 10.8823 42.3675 12.982C42.3675 15.0817 40.7913 16.7839 38.5076 16.7839ZM43.4635 4.40461C43.383 4.84037 43.3086 5.27706 43.2405 5.71455C41.6997 4.47931 39.7689 3.77856 37.6689 3.77856C32.5666 3.77856 28.5405 7.86072 28.5405 12.982C28.5405 18.1033 32.5666 22.1854 37.6689 22.1854C39.7689 22.1854 41.6997 21.4847 43.2405 20.2494C43.3086 20.6869 43.383 21.1236 43.4635 21.5594H49.2655C48.2178 15.893 48.2178 10.071 49.2655 4.40461H43.4635Z" fill="white"/>
<mask id="mask0_240_67555" style="mask-type:luminance" maskUnits="userSpaceOnUse" x="91" y="3" width="20" height="20">
<path fill-rule="evenodd" clip-rule="evenodd" d="M91.9905 3.77856H111V22.1853H91.9905V3.77856Z" fill="white"/>
</mask>
<g mask="url(#mask0_240_67555)">
<path fill-rule="evenodd" clip-rule="evenodd" d="M98.0183 10.9969C98.5474 9.24126 100.007 8.37398 101.687 8.37398C103.368 8.37398 104.754 9.28823 105.287 10.9969H98.0183ZM101.676 3.77856C95.5458 3.77856 91.9905 8.19816 91.9905 12.8964C91.9905 17.9882 95.7586 22.1853 102.373 22.1853C105.217 22.1853 108.084 21.3854 109.886 20.5012V15.4522C108.066 16.4092 105.577 17.2586 103.187 17.2586C100.34 17.2586 98.5488 16.0986 98.037 14.377H110.951C111.482 8.07224 107.671 3.77856 101.676 3.77856Z" fill="white"/>
</g>
</svg>
